<?xml version="1.0" encoding="UTF-8"?>
<!-- Generator: visioncortex VTracer 0.6.2 -->
<svg version="1.1" xmlns="http://www.w3.org/2000/svg" width="1280" height="1280">
<path d="M0 0 C5.8530529 3.22291373 10.894144 7.73537524 16 12 C17.36096182 13.10442683 18.72422006 14.2060303 20.08984375 15.3046875 C22.77807988 17.47130137 25.45568559 19.64996454 28.125 21.83984375 C31.75730906 24.81280189 35.42958008 27.73101519 39.125 30.625 C39.98206543 31.29631958 39.98206543 31.29631958 40.85644531 31.98120117 C42.57013067 33.32187078 44.28485091 34.66120362 46 36 C53.41192453 41.78553652 60.7798893 47.61458564 68.0625 53.5625 C72.84392621 57.4667889 77.65423148 61.31875117 82.5625 65.0625 C87.88426119 69.12280668 93.12278354 73.27552771 98.34179688 77.46679688 C102.56376321 80.85565166 106.80309842 84.22082052 111.0625 87.5625 C111.63750244 88.01375244 112.21250488 88.46500488 112.80493164 88.92993164 C115.6761367 91.18164366 118.55007211 93.42982535 121.42578125 95.67578125 C128.37907644 101.11371586 135.25655292 106.63446238 142.09130859 112.22070312 C146.3388538 115.68158932 150.63970357 119.05763414 155 122.375 C169.96974032 133.84870158 169.96974032 133.84870158 171 139 C171.4786337 144.26497067 170.79360134 147.51028356 168 152 C165.63254428 154.73737067 164.45870295 155.84709902 161 157 C158.48945095 157.1529647 156.00111475 157.25695178 153.48828125 157.31640625 C152.39594429 157.3475779 152.39594429 157.3475779 151.28153992 157.37937927 C148.95862125 157.44468746 146.63559094 157.50367237 144.3125 157.5625 C142.73631665 157.60570305 141.16014452 157.64931792 139.58398438 157.69335938 C135.72277025 157.8003496 131.86144397 157.90166961 128 158 C128.03254883 158.89195068 128.06509766 159.78390137 128.09863281 160.70288086 C128.19172696 164.05448761 128.22967073 167.39780454 128.23193359 170.75024414 C128.24384758 172.19264196 128.27691119 173.63504128 128.33251953 175.07641602 C128.76988269 186.98012094 128.76988269 186.98012094 124.54736328 191.79907227 C121.46780571 194.11982412 118.34161688 196.07995921 115 198 C113.45427137 199.07822571 111.91873789 200.17136345 110.3984375 201.28515625 C109.05906331 202.21349878 107.71797315 203.13937152 106.375 204.0625 C105.68277344 204.54654297 104.99054688 205.03058594 104.27734375 205.52929688 C99.24065152 209 99.24065152 209 97 209 C97 191.84 97 174.68 97 157 C29.02 157 -38.96 157 -109 157 C-109 187.36 -109 217.72 -109 249 C-116.04682232 244.51565852 -122.90091989 240.04006363 -129.625 235.125 C-130.42550781 234.54492188 -131.22601562 233.96484375 -132.05078125 233.3671875 C-137.83846079 229.16153921 -137.83846079 229.16153921 -139 228 C-139.09432985 225.79132169 -139.11742431 223.57958479 -139.11352539 221.36889648 C-139.11367142 220.67624695 -139.11381744 219.98359741 -139.1139679 219.2699585 C-139.11326874 216.97030554 -139.10547628 214.67073263 -139.09765625 212.37109375 C-139.09579208 210.78068588 -139.09436817 209.19027743 -139.09336853 207.59986877 C-139.08954329 203.4060407 -139.07971295 199.21224705 -139.06866455 195.01843262 C-139.05845057 190.74211086 -139.05387094 186.46578356 -139.04882812 182.18945312 C-139.03809069 173.79295292 -139.02101419 165.39648074 -139 157 C-139.99854004 157.02094727 -140.99708008 157.04189453 -142.02587891 157.06347656 C-145.74936443 157.136167 -149.4727879 157.1819042 -153.19677734 157.21972656 C-154.80495774 157.23977627 -156.41306583 157.26702364 -158.02099609 157.30175781 C-160.3397002 157.35057264 -162.65743625 157.37303428 -164.9765625 157.390625 C-166.04567368 157.42159271 -166.04567368 157.42159271 -167.13638306 157.45318604 C-172.24130987 157.45545331 -175.06566064 156.19366264 -179 153 C-181.97579122 149.20330086 -182.83716445 145.80364862 -183 141 C-181.41559029 132.21372798 -174.73658319 128.09532585 -168 123 C-166.67550941 121.98863716 -165.35130051 120.97690532 -164.02734375 119.96484375 C-161.90113866 118.34164943 -159.77353554 116.7204897 -157.64111328 115.10546875 C-151.66449329 110.56297222 -145.87167533 105.82281976 -140.09936523 101.02490234 C-134.90410732 96.71628734 -129.60899301 92.57483777 -124.23828125 88.48828125 C-120.6345318 85.73586357 -117.09759221 82.90225329 -113.5625 80.0625 C-105.84454219 73.86419136 -98.06362574 67.74887008 -90.27050781 61.64550781 C-83.65436692 56.46230437 -77.05722219 51.25762306 -70.5 46 C-62.24103508 39.37790865 -53.91712467 32.84010678 -45.57421875 26.32421875 C-44.42428993 25.42472104 -43.27455094 24.52498059 -42.125 23.625 C-41.55692627 23.18067627 -40.98885254 22.73635254 -40.40356445 22.27856445 C-37.18699366 19.7523182 -34.00251464 17.19199448 -30.84375 14.59375 C-29.78969971 13.7282251 -29.78969971 13.7282251 -28.71435547 12.84521484 C-27.36613179 11.735191 -26.02115085 10.62121121 -24.68017578 9.50244141 C-9.70846939 -2.82515262 -9.70846939 -2.82515262 0 0 Z M-10.23828125 36.4921875 C-10.88667969 37.02714844 -11.53507812 37.56210937 -12.203125 38.11328125 C-13.24726562 38.98533203 -13.24726562 38.98533203 -14.3125 39.875 C-15.77621134 41.08210362 -17.24106864 42.28781893 -18.70703125 43.4921875 C-19.43615723 44.0912793 -20.1652832 44.69037109 -20.91650391 45.30761719 C-23.73552576 47.59745308 -26.60887109 49.80172633 -29.5 52 C-34.41054618 55.74368372 -39.22015118 59.59107025 -44 63.5 C-49.85818889 68.28875959 -55.78811688 72.9580819 -61.80078125 77.55078125 C-71.04040094 84.60902132 -80.10392707 91.87923646 -89.10864258 99.23364258 C-93.19035251 102.55770822 -97.31436996 105.8077457 -101.5 109 C-106.6669078 112.94504784 -111.75675346 116.97592042 -116.8125 121.0625 C-117.52535156 121.63548828 -118.23820313 122.20847656 -118.97265625 122.79882812 C-120.66800521 124.17546483 -122.33691093 125.58455963 -124 127 C-124 127.33 -124 127.66 -124 128 C-45.79 128 32.42 128 113 128 C108.97741901 123.9375395 108.97741901 123.9375395 104.72265625 120.2734375 C104.13411865 119.80478271 103.54558105 119.33612793 102.93920898 118.85327148 C102.31989502 118.36544189 101.70058105 117.8776123 101.0625 117.375 C100.40644775 116.85429932 99.75039551 116.33359863 99.07446289 115.79711914 C97.05258504 114.19431349 95.02692599 112.59641525 93 111 C92.39381836 110.52191895 91.78763672 110.04383789 91.16308594 109.55126953 C85.97680042 105.4628004 80.77895474 101.38916653 75.57421875 97.32421875 C69.30926286 92.42461079 63.09759661 87.4684906 56.9375 82.4375 C51.09927131 77.67142808 45.18820542 73.02383218 39.19921875 68.44921875 C31.32084727 62.43085013 23.5480961 56.28175261 15.87670898 50.00195312 C3.4354571 37.57303063 3.4354571 37.57303063 -10.23828125 36.4921875 Z " fill="#03060A" transform="translate(646,394)"/>
<path d="M0 0 C0.22353892 4.9984832 0.38625521 9.99402457 0.49438477 14.99633789 C0.53947595 16.6950958 0.60077273 18.39350763 0.67895508 20.09106445 C1.30783838 34.10324211 1.30783838 34.10324211 -1.70947266 38.47924805 C-4.04196614 40.31345234 -6.36470425 41.642484 -9 43 C-10.56679697 44.08716858 -12.11904564 45.19559524 -13.65625 46.32421875 C-15.26923838 47.44760605 -16.88387402 48.56863122 -18.5 49.6875 C-20.26712942 50.91767815 -22.03405314 52.14815183 -23.80078125 53.37890625 C-25.11296631 54.2918042 -25.11296631 54.2918042 -26.45166016 55.22314453 C-30.20761667 57.84202281 -33.94872963 60.48166832 -37.6875 63.125 C-38.37650391 63.61186279 -39.06550781 64.09872559 -39.77539062 64.6003418 C-41.15812991 65.57751002 -42.54078018 66.55480422 -43.92333984 67.53222656 C-47.44767516 70.02320986 -50.97394701 72.51144903 -54.5 75 C-55.91667568 75.99998722 -57.33334236 76.99998722 -58.75 78 C-80 93 -80 93 -101.25 108 C-101.9510083 108.49483887 -102.6520166 108.98967773 -103.37426758 109.49951172 C-104.79333958 110.50119043 -106.21244775 111.5028179 -107.6315918 112.50439453 C-111.13675274 114.97829495 -114.64131515 117.45303366 -118.14453125 119.9296875 C-122.42713542 122.9567511 -126.71266347 125.97964315 -131 129 C-131.86222168 129.60763184 -132.72444336 130.21526367 -133.61279297 130.84130859 C-136.32377413 132.7504024 -139.03663381 134.65679791 -141.75 136.5625 C-142.59602783 137.15853027 -143.44205566 137.75456055 -144.3137207 138.36865234 C-156.31995396 146.78936299 -156.31995396 146.78936299 -163.28515625 146.5234375 C-168.67428083 145.48438327 -172.64146336 142.1840484 -177 139 C-178.29102177 138.09227663 -179.58412229 137.18750508 -180.87890625 136.28515625 C-184.52632438 133.73677905 -188.15439124 131.16220101 -191.77832031 128.58056641 C-195.34483257 126.04324769 -198.92280936 123.52222956 -202.5 121 C-203.91672535 120.00008313 -205.33339193 119.00008301 -206.75 118 C-207.45125 117.505 -208.1525 117.01 -208.875 116.5 C-215.25 112 -215.25 112 -217.37426758 110.50048828 C-218.79333958 109.49880957 -220.21244775 108.4971821 -221.6315918 107.49560547 C-225.13675274 105.02170505 -228.64131515 102.54696634 -232.14453125 100.0703125 C-233.53380401 99.08847069 -234.92312702 98.10669999 -236.3125 97.125 C-236.99441406 96.64313232 -237.67632813 96.16126465 -238.37890625 95.66479492 C-242.40566178 92.82229701 -246.43996851 89.99089968 -250.48046875 87.16796875 C-251.39852295 86.52649902 -252.31657715 85.8850293 -253.26245117 85.22412109 C-255.0627344 83.9669894 -256.86366051 82.71077774 -258.6652832 81.45556641 C-259.47698975 80.8888623 -260.28869629 80.3221582 -261.125 79.73828125 C-261.84945313 79.23337158 -262.57390625 78.72846191 -263.3203125 78.20825195 C-265 77 -265 77 -266 76 C-266.08855161 73.3337397 -266.11524673 70.69352886 -266.09765625 68.02734375 C-266.0962413 67.22970108 -266.09482635 66.43205841 -266.09336853 65.61024475 C-266.08775316 63.05262565 -266.07519812 60.49509282 -266.0625 57.9375 C-266.05748698 56.20768355 -266.05292373 54.47786574 -266.04882812 52.74804688 C-266.03777875 48.49866447 -266.02050386 44.24934688 -266 40 C-262.83988328 41.18114281 -260.12804081 42.42820041 -257.390625 44.3984375 C-256.72740234 44.87152344 -256.06417969 45.34460938 -255.38085938 45.83203125 C-254.67767578 46.34121094 -253.97449219 46.85039063 -253.25 47.375 C-251.72405541 48.46628159 -250.19801097 49.55742356 -248.671875 50.6484375 C-247.89521484 51.2062793 -247.11855469 51.76412109 -246.31835938 52.33886719 C-242.72633362 54.91259752 -239.11280691 57.45556852 -235.5 60 C-234.08321589 60.99983361 -232.66654955 61.99983411 -231.25 63 C-230.54875 63.495 -229.8475 63.99 -229.125 64.5 C-225.9375 66.75 -225.9375 66.75 -222.75 69 C-222.04883057 69.49491943 -221.34766113 69.98983887 -220.62524414 70.49975586 C-219.20767346 71.50044188 -217.79019308 72.50125583 -216.37280273 73.50219727 C-212.84569428 75.99275451 -209.31707783 78.48111592 -205.78515625 80.96484375 C-199.18321693 85.61079434 -192.59772921 90.27618124 -186.06103516 95.01367188 C-183.79544536 96.654585 -181.5249482 98.28851969 -179.25390625 99.921875 C-176.53053389 101.88265402 -173.83266515 103.87148213 -171.15234375 105.890625 C-169.99764341 106.73992004 -168.84271135 107.58890016 -167.6875 108.4375 C-166.70136719 109.17871094 -165.71523438 109.91992188 -164.69921875 110.68359375 C-162.11565601 112.28057503 -162.11565601 112.28057503 -159.54296875 111.51171875 C-156.41582064 109.65272287 -153.5130482 107.57824096 -150.625 105.375 C-144.05558159 100.46002152 -137.37025012 95.73288632 -130.625 91.0625 C-128.63535511 89.68368257 -126.64577121 88.30477713 -124.65625 86.92578125 C-123.69589844 86.2601416 -122.73554687 85.59450195 -121.74609375 84.90869141 C-117.85950498 82.20729107 -113.9894698 79.48291739 -110.125 76.75 C-109.10490845 76.02864868 -109.10490845 76.02864868 -108.06420898 75.29272461 C-106.71434702 74.33764428 -105.36465416 73.38232489 -104.01513672 72.42675781 C-93.51242204 64.99062205 -82.98831202 57.58579497 -72.44213867 50.21142578 C-67.11867389 46.48751174 -61.8047925 42.75045821 -56.5 39 C-49.50320269 34.05330398 -42.48577505 29.13658861 -35.46337891 24.22631836 C-29.92447831 20.35166567 -24.39566907 16.46308025 -18.875 12.5625 C-18.17890625 12.07104492 -17.4828125 11.57958984 -16.765625 11.07324219 C-13.76083408 8.95161617 -10.75756982 6.8279622 -7.7578125 4.69921875 C-6.84773438 4.05597656 -5.93765625 3.41273438 -5 2.75 C-3.8553125 1.93789063 -3.8553125 1.93789063 -2.6875 1.109375 C-1 0 -1 0 0 0 Z " fill="#03060A" transform="translate(773,606)"/>
<path d="M0 0 C5.84272688 4.73139842 10.28975683 11.00353125 11.69921875 18.4921875 C12.51624331 28.4693144 10.8886902 36.70987412 4.58203125 44.6328125 C-2.24941202 51.37921706 -9.84924599 53.86428195 -19.25170898 53.94750977 C-27.02551839 53.76062594 -33.26422977 50.84374843 -39.234375 45.88671875 C-45.0581649 39.77246551 -47.5095552 32.24904507 -47.80078125 23.9296875 C-47.47824666 15.0651884 -44.35044777 8.75948324 -38.3671875 2.28515625 C-27.11331449 -7.47954642 -12.34744522 -8.09187411 0 0 Z " fill="#03060A" transform="translate(622.30078125,618.5078125)"/>
<path d="M0 0 C-2.72767115 14.32290641 -5.71285385 28.59016678 -8.86160278 42.82592773 C-9.23952197 44.53971144 -9.61420441 46.25421278 -9.98532104 47.96948242 C-11.95572646 57.05636081 -14.15492681 65.98137479 -17.08203125 74.8125 C-17.32320175 75.54057358 -17.56437225 76.26864716 -17.81285095 77.01878357 C-22.00151853 89.22053886 -28.62881056 99.40203141 -40.171875 105.7421875 C-43 107 -43 107 -45.1875 107.0625 C-48.10661273 105.35129599 -48.84641561 103.09646335 -50 100 C-49.74510212 97.35925796 -49.36017148 96.32062998 -47.36328125 94.54296875 C-46.68652344 94.09566406 -46.00976562 93.64835938 -45.3125 93.1875 C-38.58807087 88.37574391 -33.02196413 82.24124689 -31 74 C-31.1296069 68.00352062 -34.33707852 63.79990168 -37.5 58.9375 C-42.80290025 50.58363676 -47.93469996 42.14801803 -52.93554688 33.6111145 C-53.68018826 32.34007409 -54.42609676 31.06977507 -55.17333984 29.80026245 C-58.9984263 23.30081163 -62.74416303 16.80765912 -66 10 C-60.85952055 8.75382316 -56.32234617 7.94876201 -51 8 C-50.5035498 8.92558716 -50.5035498 8.92558716 -49.99707031 9.86987305 C-42.53040123 23.77159812 -34.91395728 37.5686216 -27.00878906 51.22607422 C-26.30432199 52.46485877 -25.63731641 53.72536718 -25 55 C-23.24871003 49.31207041 -22.11832153 43.61970429 -21.08984375 37.76171875 C-20.91747696 36.79974075 -20.74511017 35.83776276 -20.56752014 34.84663391 C-20.02076893 31.79418639 -19.47863856 28.74094718 -18.9375 25.6875 C-18.39260221 22.61623607 -17.84662389 19.54518813 -17.29676819 16.47480774 C-16.95546875 14.56891091 -16.61703207 12.66249879 -16.28172302 10.75553894 C-16.12808792 9.89737076 -15.97445282 9.03920258 -15.81616211 8.1550293 C-15.68229599 7.39892868 -15.54842987 6.64282806 -15.4105072 5.86381531 C-15 4 -15 4 -14 2 C-11.85546875 1.3671875 -11.85546875 1.3671875 -9.1875 0.875 C-8.31480469 0.70742188 -7.44210937 0.53984375 -6.54296875 0.3671875 C-4 0 -4 0 0 0 Z " fill="#03060A" transform="translate(890,765)"/>
<path d="M0 0 C7.76383217 5.13502584 11.76537643 12.06150572 14 21 C14 25.62 14 30.24 14 35 C-2.5 35 -19 35 -36 35 C-33.89740829 45.82931086 -33.89740829 45.82931086 -27 53 C-16.37408405 59.33468066 -3.59879136 56.64531507 8 55 C8.66 57.97 9.32 60.94 10 64 C-3.86549242 68.90625116 -18.47550944 70.44212054 -32.109375 64.00390625 C-39.29921396 59.97703908 -46.09789913 53.3098617 -48.53515625 45.28125 C-51.01306675 33.12074806 -50.03930847 21.84692976 -43.50390625 11.09765625 C-33.26329065 -3.18600759 -15.90409686 -8.90312399 0 0 Z M-32.7421875 15.1171875 C-34.65341669 17.97809579 -35.31512359 20.64410559 -36 24 C-31.20004797 24.77800681 -26.61437936 25.11851665 -21.75390625 25.09765625 C-21.09792953 25.0962413 -20.44195282 25.09482635 -19.76609802 25.09336853 C-17.69818298 25.08783031 -15.63038158 25.07529002 -13.5625 25.0625 C-12.14909012 25.05747699 -10.73567852 25.0529155 -9.32226562 25.04882812 C-5.88147432 25.03788126 -2.44074828 25.02066038 1 25 C0.87109375 23.74703125 0.7421875 22.4940625 0.609375 21.203125 C0.53686523 20.49833008 0.46435547 19.79353516 0.38964844 19.06738281 C-0.64701267 13.56710322 -4.63192108 10.10363502 -9 7 C-18.44662913 2.27668543 -26.83020361 7.96709181 -32.7421875 15.1171875 Z " fill="#03060A" transform="translate(608,788)"/>
<path d="M0 0 C6.5220554 4.81321993 10.1849922 12.41933849 11.703125 20.2421875 C12.31198181 26.38739348 11.81203929 30.88951244 10.0390625 36.8203125 C3.88241935 36.12857625 -2.27398349 35.43475103 -8.43017578 34.73901367 C-10.52321041 34.50276599 -12.61630886 34.26708297 -14.70947266 34.03198242 C-17.72315268 33.69339082 -20.73659517 33.3527498 -23.75 33.01171875 C-25.14721786 32.85540733 -25.14721786 32.85540733 -26.57266235 32.69593811 C-31.06091124 32.18603234 -35.51297456 31.62171827 -39.9609375 30.8203125 C-39.08957631 37.89524514 -38.11688789 44.55694648 -32.9609375 49.8203125 C-25.8801882 54.49034617 -19.4290051 55.96356563 -11.0234375 55.9453125 C-9.24646484 55.94917969 -9.24646484 55.94917969 -7.43359375 55.953125 C-3.96135932 55.89488329 -3.96135932 55.89488329 -0.58203125 55.25 C0.28292969 55.10820313 1.14789063 54.96640625 2.0390625 54.8203125 C3.62178851 56.40303851 3.38641997 58.20065253 3.6015625 60.3828125 C3.68535156 61.20910156 3.76914062 62.03539062 3.85546875 62.88671875 C3.91605469 63.52480469 3.97664063 64.16289063 4.0390625 64.8203125 C-1.48757786 66.67484022 -6.39688475 67.17300583 -12.2109375 67.1328125 C-13.46837769 67.12544067 -13.46837769 67.12544067 -14.7512207 67.11791992 C-26.70945609 66.89255451 -35.85950217 63.67162619 -44.7109375 55.5703125 C-51.4876114 48.4996733 -53.34262002 39.67842191 -53.23828125 30.18359375 C-52.2714678 18.45927849 -47.53744147 10.02749573 -39.2109375 2.0703125 C-27.44046029 -7.65312519 -12.85042236 -7.73073218 0 0 Z M-31.01171875 8.59765625 C-34.49250058 12.35228841 -36.81682366 15.73536209 -37.9609375 20.8203125 C-30.16447045 22.77155017 -22.38687739 23.64442543 -14.3984375 24.4453125 C-13.10357422 24.579375 -11.80871094 24.7134375 -10.47460938 24.8515625 C-7.30383606 25.17917007 -4.1326512 25.50196087 -0.9609375 25.8203125 C-1.0823088 24.22326214 -1.21464116 22.6270424 -1.3515625 21.03125 C-1.42407227 20.14228027 -1.49658203 19.25331055 -1.57128906 18.33740234 C-2.30005642 13.62963829 -4.93074064 10.87994355 -8.1484375 7.5703125 C-15.76742864 2.8296069 -24.02571265 2.54311763 -31.01171875 8.59765625 Z " fill="#03060A" transform="translate(478.9609375,779.1796875)"/>
<path d="M0 0 C0 3.3 0 6.6 0 10 C-0.73605469 10.03738281 -1.47210937 10.07476563 -2.23046875 10.11328125 C-9.71941667 10.39677846 -9.71941667 10.39677846 -16 14 C-19.95502657 20.27349043 -19.29314857 26.77985928 -19 34 C-18.27554688 33.855625 -17.55109375 33.71125 -16.8046875 33.5625 C-11.81508377 32.60449608 -7.10732262 31.72392851 -2 32 C-1.505 36.95 -1.505 36.95 -1 42 C-2.89492006 42.33848652 -4.79098466 42.67056911 -6.6875 43 C-7.74324219 43.185625 -8.79898438 43.37125 -9.88671875 43.5625 C-12.65561438 43.95160453 -15.21291723 44.03305658 -18 44 C-17.83395264 45.267229 -17.83395264 45.267229 -17.66455078 46.56005859 C-13.95642172 74.91702059 -13.95642172 74.91702059 -12.75 85.375 C-12.60046875 86.66148437 -12.4509375 87.94796875 -12.296875 89.2734375 C-11.957812 93.52957045 -11.93385627 97.73372968 -12 102 C-14.56893838 103.28446919 -16.76576337 103.32977144 -19.625 103.5625 C-20.62789062 103.64628906 -21.63078125 103.73007812 -22.6640625 103.81640625 C-23.43492187 103.87699219 -24.20578125 103.93757812 -25 104 C-26.13973788 101.72052424 -26.30627688 100.02719134 -26.57250977 97.49365234 C-26.67253799 96.55862885 -26.77256622 95.62360535 -26.87562561 94.6602478 C-27.03193703 93.1384642 -27.03193703 93.1384642 -27.19140625 91.5859375 C-27.30097153 90.54233063 -27.4105368 89.49872375 -27.52342224 88.42349243 C-27.75477414 86.2094503 -27.98413287 83.99519915 -28.21166992 81.78076172 C-28.55897922 78.40917872 -28.91477449 75.03856856 -29.27148438 71.66796875 C-29.49530756 69.51567859 -29.71863069 67.36333635 -29.94140625 65.2109375 C-30.10075401 63.70737198 -30.10075401 63.70737198 -30.26332092 62.1734314 C-30.81428705 56.74808034 -31.10935367 51.45315682 -31 46 C-34.3 46 -37.6 46 -41 46 C-42.60725635 42.78548731 -42.05748185 39.56387464 -42 36 C-39.36 35.67 -36.72 35.34 -34 35 C-33.97421875 33.96101562 -33.9484375 32.92203125 -33.921875 31.8515625 C-33.55964645 21.69330812 -33.06607627 12.55158841 -25.375 5.0625 C-18.30129121 -0.51231883 -8.67406115 -2.89135372 0 0 Z " fill="#03060A" transform="translate(825,743)"/>
<path d="M0 0 C1.79244141 0.01740234 1.79244141 0.01740234 3.62109375 0.03515625 C5.41740234 0.04869141 5.41740234 0.04869141 7.25 0.0625 C8.17683594 0.07410156 9.10367188 0.08570313 10.05859375 0.09765625 C8.75272564 6.39174417 7.09919638 12.40812502 5.046875 18.49609375 C4.75556198 19.37053131 4.46424896 20.24496887 4.16410828 21.14590454 C3.54849787 22.99040805 2.93069046 24.83417962 2.31079102 26.67724609 C1.38582811 29.42882448 0.46870597 32.18291732 -0.44726562 34.9375 C-4.38924093 46.74318217 -8.56924337 58.44469867 -12.94140625 70.09765625 C-19.37640625 70.59265625 -19.37640625 70.59265625 -25.94140625 71.09765625 C-31.62681806 59.98986573 -36.92032748 48.73996214 -42.015625 37.35009766 C-43.20026396 34.70286251 -44.39077291 32.05832457 -45.58203125 29.4140625 C-55.94140625 6.36820652 -55.94140625 6.36820652 -55.94140625 3.09765625 C-53.84045651 2.82192533 -51.7353299 2.57786649 -49.62890625 2.34765625 C-48.45714844 2.2084375 -47.28539062 2.06921875 -46.078125 1.92578125 C-42.94140625 2.09765625 -42.94140625 2.09765625 -41.42602539 3.68383789 C-39.60145258 6.65038146 -38.34423248 9.65549092 -37.05078125 12.890625 C-36.78307922 13.5549202 -36.5153772 14.21921539 -36.23956299 14.90364075 C-35.38456781 17.0286118 -34.53774615 19.15672513 -33.69140625 21.28515625 C-33.138585 22.66493972 -32.58520399 24.04449904 -32.03125 25.42382812 C-31.19695609 27.50121997 -30.36303192 29.5787481 -29.53137207 31.65719604 C-26.39243677 39.49440796 -23.16878231 47.29654026 -19.94140625 55.09765625 C-19.74317764 54.42336075 -19.54494904 53.74906525 -19.3407135 53.05433655 C-17.47529617 46.71103584 -15.60679594 40.36865258 -13.73479557 34.0272913 C-12.77240932 30.76682452 -11.81123409 27.50601076 -10.8527832 24.24438477 C-9.75176928 20.49780739 -8.64556557 16.75277259 -7.5390625 13.0078125 C-7.19424332 11.8317897 -6.84942413 10.65576691 -6.49415588 9.44410706 C-6.01377113 7.82253944 -6.01377113 7.82253944 -5.52368164 6.16821289 C-5.10065514 4.73258751 -5.10065514 4.73258751 -4.66908264 3.26795959 C-3.58158325 0.02447993 -3.56775822 0.11845147 0 0 Z " fill="#03060A" transform="translate(735.94140625,782.90234375)"/>
<path d="M0 0 C-0.99 2.97 -1.98 5.94 -3 9 C-5.61144343 8.55232398 -7.89577046 8.0453931 -10.33203125 6.984375 C-14.83163289 5.32419987 -19.2743645 5.43320714 -24 6 C-27.26935144 7.37712361 -27.26935144 7.37712361 -29 10 C-29.83349951 12.95659873 -29.83349951 12.95659873 -29 16 C-25.36365414 20.29252858 -21.57928787 22.44450996 -16.625 24.8125 C-9.40485298 28.46060189 -4.57308557 32.41319529 -0.5625 39.5625 C0.87680664 45.79949543 0.01261337 50.39030614 -3 56 C-7.25351341 61.22574504 -12.52562808 64.13140702 -19 65.75 C-29.33316364 66.61109697 -39.93674379 65.43795373 -49 60 C-48.49287967 56.28111761 -47.88391785 53.26545761 -46 50 C-41.6545394 50.65840312 -38.01345504 52.24867416 -34 54 C-28.78678972 55.84984881 -23.6136455 55.6454582 -18.5625 53.625 C-15.91143428 52.25274335 -15.91143428 52.25274335 -15 50 C-14.63821416 46.16507011 -14.47927655 43.82872028 -16.55859375 40.51953125 C-19.53912249 37.44362559 -22.55597661 35.84936959 -26.375 34 C-32.48534297 31.0056885 -37.88697391 28.02867073 -41.875 22.3125 C-43.6609626 17.05383234 -44.1413605 12.03834391 -42.15625 6.75390625 C-38.49389131 0.20867737 -32.92072167 -3.36372524 -25.8125 -5.4375 C-16.73837851 -7.08591307 -7.79570866 -4.58571097 0 0 Z " fill="#03060A" transform="translate(547,786)"/>
<path d="M0 0 C4.49597027 3.17989098 6.60286749 7.51563373 8.30859375 12.6328125 C9.04727161 19.65025219 7.44826819 24.86895957 3.30859375 30.6328125 C-2.16696589 35.29875632 -7.48994964 37.10503916 -14.69140625 36.6328125 C-21.70395843 35.25510087 -25.68681795 31.39632217 -29.69140625 25.6328125 C-32.40342501 20.43477654 -31.94281052 15.23216152 -30.69140625 9.6328125 C-27.7959469 3.94913303 -23.59642001 -0.06920263 -17.75390625 -2.6796875 C-10.82642392 -4.23483659 -6.18802761 -3.29651395 0 0 Z " fill="#03060A" transform="translate(771.69140625,735.3671875)"/>
<path d="M0 0 C1.64630328 0.14042877 3.29204179 0.28749329 4.9375 0.4375 C6.31228516 0.55931641 6.31228516 0.55931641 7.71484375 0.68359375 C10 1 10 1 11 2 C11.07205511 3.68608966 11.08386068 5.37500659 11.0625 7.0625 C11.05347656 7.98160156 11.04445313 8.90070312 11.03515625 9.84765625 C11.02355469 10.55792969 11.01195312 11.26820313 11 12 C11.50789063 11.51789062 12.01578125 11.03578125 12.5390625 10.5390625 C17.76087263 5.74751388 21.42604751 3.1817264 28.6875 2.8125 C32 3 32 3 35 4 C34.67 7.96 34.34 11.92 34 16 C32.68 15.938125 31.36 15.87625 30 15.8125 C24.46735196 15.8472419 19.62377811 16.64755118 15.38989258 20.44360352 C11.68246133 24.62195419 9.85839718 28.34180271 8.875 33.875 C8.64925293 34.99914307 8.64925293 34.99914307 8.41894531 36.14599609 C6.29797327 47.03729685 4.65808935 58.03048606 3 69 C-1.75781721 70.58593907 -6.17713433 68.96457313 -11 68 C-10.50869888 57.03756376 -8.48787384 46.3005871 -6.61645508 35.50854492 C-6.06218489 32.31068197 -5.51582453 29.11154327 -4.97070312 25.91210938 C-4.61764858 23.85408752 -4.26414823 21.79614207 -3.91015625 19.73828125 C-3.74862564 18.79430984 -3.58709503 17.85033844 -3.42066956 16.87776184 C-2.43502761 11.21009114 -1.28947723 5.60656261 0 0 Z " fill="#03060A" transform="translate(391,765)"/>
<path d="M0 0 C0 3.96 0 7.92 0 12 C-2.5059375 12.309375 -2.5059375 12.309375 -5.0625 12.625 C-10.85053669 13.70513555 -14.34360652 15.3696417 -18 20 C-20.90506068 26.10891482 -21.4615797 32.17513246 -21.51171875 38.84765625 C-21.52966995 39.74495956 -21.54762115 40.64226288 -21.56611633 41.5667572 C-21.6197733 44.39862537 -21.65397034 47.23032942 -21.6875 50.0625 C-21.72071257 51.99676742 -21.7552058 53.9310133 -21.79101562 55.86523438 C-21.87547347 60.57670357 -21.94249553 65.28812789 -22 70 C-26.29 70 -30.58 70 -35 70 C-35.15301329 61.1512516 -35.30177587 52.3024602 -35.4429636 43.45351505 C-35.50868791 39.34501734 -35.57630739 35.23656871 -35.64819336 31.12817383 C-35.71744175 27.16659657 -35.78179646 23.20496781 -35.84269524 19.24325371 C-35.86685236 17.72849049 -35.89280114 16.21375478 -35.92053413 14.69905281 C-35.95894714 12.58465001 -35.99110482 10.47024078 -36.02172852 8.35571289 C-36.04171402 7.14992081 -36.06169952 5.94412872 -36.08229065 4.70179749 C-36 2 -36 2 -35 1 C-33.33570949 0.90176063 -31.66718069 0.87026369 -30 0.875 C-28.63875 0.87113281 -28.63875 0.87113281 -27.25 0.8671875 C-25 1 -25 1 -24 2 C-23.76712992 3.68183948 -23.58735834 5.3712416 -23.4375 7.0625 C-23.35371094 7.98160156 -23.26992188 8.90070312 -23.18359375 9.84765625 C-23.12300781 10.55792969 -23.06242188 11.26820313 -23 12 C-22.64808594 11.46890625 -22.29617188 10.9378125 -21.93359375 10.390625 C-15.65563499 1.40806259 -10.91559568 -0.59811483 0 0 Z " fill="#03060A" transform="translate(673,785)"/>
<path d="M0 0 C3.09244792 0.03255208 6.18489583 0.06510417 9.27734375 0.09765625 C10.86179622 11.92880338 12.06612429 23.7764403 13.13720703 35.6640625 C13.40450248 38.62154142 13.6786053 41.57834012 13.953125 44.53515625 C14.12670982 46.44136916 14.2999012 48.34761796 14.47265625 50.25390625 C14.55387726 51.12486938 14.63509827 51.99583252 14.71878052 52.89318848 C15.17119453 57.98502747 15.35330139 62.98563325 15.27734375 68.09765625 C10.50747942 69.05162912 6.1158976 69.1376443 1.27734375 69.09765625 C0.72555537 62.90873031 0.17422231 56.71976402 -0.37670898 50.53076172 C-0.56376167 48.43016493 -0.75093363 46.32957876 -0.93823242 44.22900391 C-1.46302097 38.34297557 -1.98589245 32.45678513 -2.50463867 26.57022095 C-2.69233676 24.44151336 -2.88121132 22.31290957 -3.0703125 20.18432617 C-3.4834678 15.42012912 -3.86179606 10.69648085 -3.84765625 5.91015625 C-3.85023438 5.00910156 -3.8528125 4.10804688 -3.85546875 3.1796875 C-3.65159105 -0.01639526 -3.23878317 0.11616869 0 0 Z " fill="#03060A" transform="translate(761.72265625,780.90234375)"/>
</svg>
